<svg width="52" height="52" viewBox="0 0 52 52" fill="none" xmlns="http://www.w3.org/2000/svg">
<path d="M25.9999 17.948C24.5537 17.948 23.1399 17.5191 21.9373 16.7156C20.7348 15.9121 19.7975 14.7701 19.2441 13.4339C18.6906 12.0977 18.5458 10.6274 18.8279 9.2089C19.1101 7.79042 19.8065 6.48745 20.8292 5.46478C21.8519 4.44211 23.1548 3.74566 24.5733 3.46351C25.9918 3.18135 27.4621 3.32617 28.7983 3.87963C30.1345 4.4331 31.2765 5.37036 32.08 6.57289C32.8836 7.77543 33.3124 9.18923 33.3124 10.6355C33.2997 12.571 32.5251 14.4235 31.1565 15.7921C29.7879 17.1607 27.9354 17.9352 25.9999 17.948ZM25.9999 4.87488C24.8768 4.87491 23.7788 5.20747 22.8444 5.83064C21.91 6.45382 21.181 7.3397 20.7494 8.37659C20.3177 9.41348 20.2027 10.555 20.4189 11.6571C20.6351 12.7592 21.1728 13.7727 21.9641 14.5697C22.7555 15.3667 23.7651 15.9116 24.8657 16.1356C25.9662 16.3596 27.1085 16.2528 28.1484 15.8285C29.1884 15.4043 30.0794 14.6816 30.7092 13.7517C31.339 12.8217 31.6794 11.7261 31.6874 10.603C31.6853 9.09147 31.0867 7.64185 30.0217 6.56924C28.9567 5.49663 27.5114 4.88772 25.9999 4.87488ZM25.9999 48.7499C23.861 48.7499 21.7702 48.1156 19.9918 46.9273C18.2134 45.739 16.8273 44.0501 16.0087 42.074C15.1902 40.0979 14.9761 37.9235 15.3933 35.8257C15.8106 33.7279 16.8406 31.801 18.353 30.2886C19.8654 28.7762 21.7924 27.7462 23.8901 27.3289C25.9879 26.9116 28.1623 27.1258 30.1384 27.9443C32.1145 28.7628 33.8035 30.1489 34.9918 31.9274C36.18 33.7058 36.8143 35.7966 36.8143 37.9355C36.8122 40.803 35.6721 43.5524 33.6445 45.58C31.6168 47.6077 28.8674 48.7477 25.9999 48.7499ZM25.9999 28.7461C24.1824 28.7461 22.4058 29.2851 20.8946 30.2948C19.3834 31.3046 18.2056 32.7397 17.5101 34.4189C16.8145 36.098 16.6325 37.9457 16.9871 39.7283C17.3417 41.5108 18.2169 43.1482 19.5021 44.4334C20.7872 45.7185 22.4246 46.5937 24.2072 46.9483C25.9897 47.3029 27.8374 47.1209 29.5165 46.4254C31.1957 45.7299 32.6309 44.552 33.6406 43.0408C34.6504 41.5297 35.1893 39.753 35.1893 37.9355C35.1872 35.499 34.2183 33.1629 32.4954 31.44C30.7725 29.7171 28.4364 28.7483 25.9999 28.7461Z" fill="#175A6B"/>
<path d="M38.0818 33.1011C37.8664 33.1011 37.6597 33.0155 37.5073 32.8631C37.3549 32.7108 37.2693 32.5041 37.2693 32.2886C37.2693 24.3749 32.2156 17.948 26 17.948C19.7843 17.948 14.7306 24.3749 14.7306 32.2886C14.7306 32.5041 14.645 32.7108 14.4926 32.8631C14.3402 33.0155 14.1336 33.1011 13.9181 33.1011C13.7026 33.1011 13.4959 33.0155 13.3436 32.8631C13.1912 32.7108 13.1056 32.5041 13.1056 32.2886C13.1056 23.4811 18.8906 16.323 26 16.323C33.1093 16.323 38.8943 23.4811 38.8943 32.2886C38.8943 32.5041 38.8087 32.7108 38.6564 32.8631C38.504 33.0155 38.2973 33.1011 38.0818 33.1011Z" fill="#175A6B"/>
<path d="M11.9275 22.3598C10.8489 22.3614 9.79405 22.043 8.89642 21.4449C7.9988 20.8469 7.29875 19.996 6.88487 18.9999C6.47098 18.0038 6.36186 16.9074 6.5713 15.8493C6.78074 14.7912 7.29934 13.819 8.06148 13.0558C8.82361 12.2925 9.79503 11.7724 10.8528 11.5614C11.9106 11.3504 13.0072 11.4579 14.0039 11.8703C15.0005 12.2827 15.8525 12.9815 16.4519 13.8782C17.0513 14.7749 17.3713 15.8293 17.3713 16.9079C17.3691 18.3518 16.7952 19.736 15.775 20.7577C14.7548 21.7795 13.3714 22.3555 11.9275 22.3598ZM11.9275 13.0892C11.17 13.0876 10.429 13.3109 9.79838 13.7307C9.16781 14.1506 8.67605 14.7482 8.3854 15.4478C8.09474 16.1474 8.01828 16.9175 8.16568 17.6606C8.31308 18.4037 8.67772 19.0864 9.21341 19.6221C9.74909 20.1577 10.4317 20.5224 11.1748 20.6698C11.9179 20.8172 12.688 20.7407 13.3876 20.4501C14.0872 20.1594 14.6848 19.6676 15.1047 19.0371C15.5246 18.4065 15.7479 17.6655 15.7463 16.9079C15.7441 15.8958 15.3411 14.9257 14.6254 14.21C13.9097 13.4943 12.9397 13.0913 11.9275 13.0892Z" fill="#175A6B"/>
<path d="M13.9181 33.101H4.0625C3.84701 33.101 3.64035 33.0154 3.48798 32.863C3.3356 32.7107 3.25 32.504 3.25 32.2885C3.25 25.9185 7.14188 20.7348 11.9275 20.7348C13.6144 20.7572 15.2396 21.3728 16.5181 22.4735C16.6841 22.6114 16.7884 22.8096 16.8082 23.0244C16.828 23.2393 16.7617 23.4532 16.6237 23.6191C16.5555 23.7013 16.4717 23.7692 16.3771 23.819C16.2826 23.8687 16.1792 23.8994 16.0728 23.9092C15.858 23.929 15.6441 23.8627 15.4781 23.7248C14.4916 22.8669 13.2346 22.3836 11.9275 22.3598C8.23063 22.3598 5.19188 26.3816 4.89938 31.476H13.9181C14.1336 31.476 14.3403 31.5616 14.4926 31.714C14.645 31.8664 14.7306 32.073 14.7306 32.2885C14.7306 32.504 14.645 32.7107 14.4926 32.863C14.3403 33.0154 14.1336 33.101 13.9181 33.101ZM40.0725 22.3598C38.9932 22.3646 37.9367 22.0489 37.037 21.4528C36.1372 20.8567 35.4347 20.0069 35.0183 19.0112C34.6019 18.0154 34.4905 16.9185 34.6981 15.8593C34.9057 14.8001 35.423 13.8264 36.1844 13.0615C36.9459 12.2966 37.9173 11.775 38.9755 11.5626C40.0337 11.3503 41.1312 11.4568 42.1288 11.8687C43.1264 12.2806 43.9793 12.9794 44.5795 13.8765C45.1796 14.7735 45.5 15.8286 45.5 16.9079C45.4979 18.3489 44.9262 19.7307 43.9095 20.752C42.8927 21.7733 41.5135 22.3512 40.0725 22.3598ZM40.0725 13.0891C39.3143 13.0843 38.5717 13.3048 37.939 13.7228C37.3063 14.1407 36.812 14.7371 36.5188 15.4364C36.2257 16.1357 36.1469 16.9064 36.2924 17.6505C36.438 18.3947 36.8013 19.0788 37.3364 19.6162C37.8714 20.1535 38.554 20.5197 39.2975 20.6685C40.0411 20.8172 40.812 20.7417 41.5126 20.4515C42.2131 20.1614 42.8117 19.6696 43.2323 19.0387C43.6529 18.4078 43.8766 17.6661 43.875 16.9079C43.8729 15.8985 43.4721 14.9309 42.7599 14.2157C42.0477 13.5005 41.0818 13.0956 40.0725 13.0891Z" fill="#175A6B"/>
<path d="M47.9375 33.102H38.0818C37.8663 33.102 37.6597 33.0164 37.5073 32.864C37.3549 32.7116 37.2693 32.505 37.2693 32.2895C37.2693 32.074 37.3549 31.8673 37.5073 31.7149C37.6597 31.5626 37.8663 31.477 38.0818 31.477H47.125C46.8325 26.3826 43.7937 22.3607 40.0968 22.3607C38.6822 22.3877 37.33 22.9477 36.3106 23.9288C36.1515 24.0588 35.9492 24.1238 35.7442 24.1106C35.5392 24.0974 35.3469 24.007 35.2058 23.8577C35.0648 23.7084 34.9855 23.5113 34.9839 23.3059C34.9824 23.1005 35.0587 22.9021 35.1975 22.7507C36.5158 21.501 38.2561 20.7933 40.0725 20.7682C44.8581 20.7357 48.75 25.9195 48.75 32.2895C48.75 32.505 48.6644 32.7116 48.512 32.864C48.3596 33.0164 48.1529 33.102 47.9375 33.102ZM26 44.9482C25.8614 44.9479 25.7249 44.9145 25.6018 44.8507C23.6925 43.7863 19.695 40.1545 19.1912 37.2863C19.0614 36.7015 19.0626 36.0952 19.1946 35.5108C19.3267 34.9265 19.5863 34.3786 19.955 33.9063C20.1919 33.6046 20.4923 33.3586 20.8349 33.1859C21.1775 33.0132 21.5539 32.918 21.9375 32.907C23.5625 32.907 25.1306 34.1013 26 34.9301C26.8693 34.1176 28.4375 32.907 30.0625 32.907C30.446 32.918 30.8224 33.0132 31.165 33.1859C31.5076 33.3586 31.808 33.6046 32.045 33.9063C32.4136 34.3786 32.6732 34.9265 32.8053 35.5108C32.9373 36.0952 32.9385 36.7015 32.8087 37.2863C32.305 40.1545 28.3075 43.7863 26.3981 44.8507C26.275 44.9145 26.1385 44.9479 26 44.9482ZM21.9375 34.532C21.7911 34.5452 21.6493 34.5898 21.5218 34.6627C21.3942 34.7356 21.2838 34.8351 21.1981 34.9545C20.9866 35.2462 20.8401 35.58 20.7686 35.9332C20.6971 36.2865 20.7023 36.6509 20.7837 37.002C21.125 39.0007 24.1718 41.9988 26 43.1851C27.8281 41.9988 30.875 39.0088 31.2162 37.002C31.3001 36.6484 31.3065 36.281 31.2349 35.9247C31.1634 35.5685 31.0157 35.232 30.8018 34.9382C30.7145 34.8219 30.6034 34.7254 30.4759 34.6554C30.3484 34.5853 30.2075 34.5433 30.0625 34.532C28.6893 34.532 26.9343 36.2057 26.6662 36.5713C26.5882 36.6783 26.4852 36.7645 26.3663 36.8226C26.2473 36.8806 26.116 36.9087 25.9837 36.9045C25.8541 36.903 25.7267 36.8704 25.6122 36.8097C25.4977 36.7489 25.3995 36.6616 25.3256 36.5551C25.0656 36.2057 23.3106 34.532 21.9375 34.532Z" fill="#175A6B"/>
</svg>
