<svg width="50" height="50" viewBox="0 0 50 50" fill="none" xmlns="http://www.w3.org/2000/svg">
<path d="M47.041 31.5137C47.0215 31.4355 46.9922 31.3574 46.9531 31.2793L42.9004 24.5312C41.8164 22.7246 41.7481 21.25 41.6602 19.2188C41.5918 17.7246 41.5137 15.8691 40.9961 13.4375C40.2148 9.74609 37.8223 6.42578 34.2676 4.0918C30.9082 1.89453 26.7578 0.683594 22.5781 0.683594C17.3145 0.683594 12.373 2.73438 8.65234 6.44531C4.93164 10.166 2.89062 15.1074 2.89062 20.3711C2.89062 25.9082 5.22461 31.1816 9.30664 34.9121L6.66016 46.6211C6.51367 47.2656 6.66016 47.9004 7.07031 48.418C7.48047 48.9355 8.06641 49.2188 8.7207 49.2188C11.6602 49.2285 18.5059 49.2676 29.6387 49.3262C30 49.3262 30.3125 49.0723 30.3809 48.7207L31.1523 44.8828L36.9043 47.1387C36.9238 47.1484 36.9434 47.1582 36.9629 47.1582C38.4668 47.6074 39.6777 47.4707 40.5762 46.748C41.7285 45.8203 42.2461 44.0137 42.1387 41.2402C42.6563 41.1328 43.1152 40.918 43.3594 40.459C43.6816 39.8535 43.4766 39.1211 43.0078 38.1641C43.3594 38.0078 43.6523 37.7539 43.8672 37.4219C44.209 36.8848 44.4434 35.9766 43.8965 34.5117C45.1953 34.4727 46.0938 34.1602 46.6113 33.5645C46.9336 33.1934 47.2656 32.5488 47.041 31.5137ZM45.4785 32.5488C45.332 32.7246 44.7559 33.1055 42.7637 32.9395C42.4805 32.9199 42.2168 33.0469 42.0703 33.2812C41.9141 33.5156 41.9043 33.8086 42.041 34.0527C42.7832 35.4102 42.8027 36.2598 42.5977 36.582C42.4609 36.7969 42.1484 36.8262 41.9043 36.8164C41.6309 36.7969 41.3672 36.9336 41.2207 37.168C41.0742 37.4023 41.0645 37.6953 41.1914 37.9395C41.6797 38.8379 41.9531 39.4238 42.002 39.6875C41.9043 39.7168 41.6992 39.7656 41.2891 39.8047C40.8789 39.8438 40.5664 40.1953 40.5957 40.6152C40.8301 43.8672 40.2051 45.0879 39.6387 45.5469C39.1602 45.9277 38.418 45.9863 37.4316 45.6934L30.8594 43.125C30.6543 43.0469 30.4199 43.0566 30.2148 43.1641C30.0195 43.2715 29.8828 43.457 29.834 43.6816L29.0137 47.793C18.2422 47.7344 11.6016 47.7051 8.7207 47.6953C8.52539 47.6953 8.36914 47.6172 8.24219 47.4609C8.11523 47.3047 8.07617 47.1387 8.125 46.9434L10.8691 34.8047C10.9277 34.5312 10.8398 34.248 10.625 34.0625C6.66016 30.6055 4.38477 25.6152 4.38477 20.3613C4.38477 10.3418 12.5391 2.1875 22.5586 2.1875C30.8203 2.1875 38.0957 7.14844 39.4922 13.7402C39.9805 16.0547 40.0586 17.7637 40.127 19.2773C40.2246 21.4551 40.3027 23.1738 41.582 25.3027L45.5664 31.9434C45.6445 32.3633 45.5176 32.5 45.4785 32.5488ZM22.7637 25.6543C22.959 27.5098 22.9004 29.6191 22.5684 32.0215C22.5195 32.3535 22.2363 32.5977 21.9141 32.5977C21.8848 32.5977 21.8555 32.5977 21.8262 32.5879C21.4648 32.5391 21.2109 32.207 21.2598 31.8359C22.002 26.4844 21.377 22.7051 19.3555 20.2637C17.5781 18.125 14.5801 16.8652 10.2148 16.4258C10.8984 17.5 11.1621 18.8184 11.416 20.0977C12.0801 23.4375 12.7051 26.5918 20.2246 26.5918H20.2344C20.5957 26.5918 20.8984 26.8848 20.8984 27.2559C20.8984 27.6172 20.6055 27.9199 20.2344 27.9199C20.2344 27.9199 20.2344 27.9199 20.2246 27.9199C11.6113 27.9199 10.7813 23.7305 10.1172 20.3613C9.76563 18.584 9.46289 17.0508 8.17383 16.1914C7.92969 16.0254 7.82227 15.7129 7.91016 15.4297C8.00781 15.1465 8.27149 14.9609 8.57422 14.9707C14.2578 15.2441 18.1152 16.6895 20.3711 19.4043C21.2012 20.4004 21.8164 21.5723 22.2363 22.9395C23.7988 18.5449 25.8398 16.1621 30.1172 13.3398C30.4199 13.1348 30.8301 13.2227 31.0352 13.5254C31.2402 13.8281 31.1523 14.2383 30.8496 14.4434C26.1133 17.5781 24.3652 20 22.7637 25.6543ZM36.4062 10.1367C36.4941 10.3613 36.4453 10.6152 36.2891 10.8008C35.127 12.1484 34.834 14.1406 34.5215 16.2598C34.1992 18.4082 33.877 20.625 32.5879 22.4023C31.123 24.4336 28.6426 25.498 25.0195 25.6641C25.0098 25.6641 25 25.6641 24.9902 25.6641C24.6387 25.6641 24.3457 25.3906 24.3262 25.0293C24.3066 24.668 24.5898 24.3555 24.9609 24.3359C28.1543 24.1895 30.3027 23.3008 31.5137 21.6211C32.6074 20.1074 32.9102 18.0469 33.2129 16.0547C33.4766 14.2578 33.75 12.4023 34.6191 10.8887C28.5547 10.332 24.3457 12.793 21.7578 18.3789C21.6016 18.7109 21.2109 18.8574 20.8789 18.7012C20.5469 18.5449 20.4004 18.1543 20.5566 17.8223C23.5254 11.3965 28.6914 8.66211 35.8887 9.70703C36.1133 9.74609 36.3184 9.91211 36.4062 10.1367ZM19.2578 23.252C19.5215 23.5059 19.5215 23.9258 19.2676 24.1895C19.1406 24.3262 18.9648 24.3848 18.7988 24.3848C18.6328 24.3848 18.4668 24.3262 18.3398 24.1992C16.6016 22.5 14.9805 21.3281 13.5156 20.7227C13.1738 20.5859 13.0176 20.1953 13.1543 19.8535C13.291 19.5117 13.6816 19.3555 14.0234 19.4922C15.6348 20.166 17.3926 21.4258 19.2578 23.252Z" fill="#175A6B"/>
</svg>
